<?xml version="1.0" standalone="no"?>
<!DOCTYPE svg PUBLIC "-//W3C//DTD SVG 20010904//EN"
 "http://www.w3.org/TR/2001/REC-SVG-20010904/DTD/svg10.dtd">
<svg version="1.0" xmlns="http://www.w3.org/2000/svg"
 width="768.000000pt" height="735.000000pt" viewBox="0 0 768.000000 735.000000"
 preserveAspectRatio="xMidYMid meet">

<g transform="translate(0.000000,735.000000) scale(0.100000,-0.100000)"
fill="#000000" stroke="none">
<path d="M3650 6064 c-14 -2 -65 -9 -115 -14 -83 -10 -167 -26 -270 -51 -22
-5 -50 -12 -63 -14 -26 -5 -61 -15 -182 -57 -164 -56 -510 -244 -617 -334 -12
-11 -50 -41 -85 -69 -139 -110 -345 -333 -447 -484 -130 -193 -186 -297 -256
-475 -122 -313 -175 -583 -175 -886 0 -286 51 -569 145 -810 l25 -63 -21 -66
c-59 -189 -18 -411 104 -572 77 -100 222 -168 362 -169 77 -1 81 -2 105 -32
32 -39 305 -259 368 -295 26 -15 53 -33 59 -39 25 -24 380 -193 469 -223 234
-79 513 -124 774 -124 374 -1 711 72 1022 222 186 90 360 194 423 252 11 10
41 36 66 56 112 92 156 130 181 155 24 26 32 28 102 28 218 0 387 139 467 382
30 90 30 257 0 349 l-21 66 44 134 c166 508 165 994 -3 1495 -82 245 -157 396
-303 611 -102 150 -304 373 -418 462 -47 36 -96 76 -110 89 -78 72 -315 208
-512 295 -268 118 -625 189 -943 186 -82 -1 -161 -3 -175 -5z m480 -54 c193
-25 382 -74 570 -147 151 -60 229 -99 378 -192 404 -250 719 -611 909 -1041
150 -338 211 -650 200 -1020 -8 -253 -35 -421 -103 -635 -37 -115 -35 -114
-79 -44 -100 163 -297 371 -507 538 -102 81 -106 85 -101 116 8 51 -14 101
-74 165 -69 75 -169 142 -278 187 -129 52 -209 66 -350 60 -138 -6 -241 -34
-365 -98 -176 -91 -283 -244 -205 -295 31 -20 58 -17 305 31 213 41 367 59
440 50 52 -6 167 -32 181 -41 4 -2 3 -21 -3 -41 -5 -21 -17 -83 -26 -138 l-17
-99 -45 -13 c-142 -41 -487 -100 -735 -125 -169 -16 -614 -16 -780 0 -249 25
-454 59 -667 108 l-107 26 -6 46 c-4 26 -16 87 -26 137 -10 49 -19 92 -19 96
0 9 113 35 190 44 73 9 227 -9 435 -50 300 -60 325 -59 325 18 0 164 -330 347
-624 347 -55 0 -129 -7 -164 -15 -158 -37 -319 -123 -418 -222 -63 -63 -86
-110 -83 -167 l3 -44 -105 -83 c-203 -161 -394 -363 -500 -528 l-48 -75 -11
30 c-40 101 -80 258 -107 409 -14 79 -18 156 -18 375 1 246 3 288 24 400 113
603 432 1119 917 1483 312 234 731 402 1114 446 52 6 111 13 130 15 59 7 360
-2 450 -14z m-1560 -2409 c23 -86 59 -328 70 -471 21 -259 0 -523 -55 -685
-50 -148 -162 -282 -279 -335 -272 -124 -509 -53 -631 189 -63 126 -81 264
-50 386 34 134 139 305 283 461 176 190 593 515 638 497 8 -3 18 -21 24 -42z
m2593 37 c119 -62 443 -325 584 -472 126 -133 190 -220 249 -341 93 -191 96
-340 9 -519 -76 -156 -198 -244 -350 -254 -222 -14 -431 106 -525 303 -72 150
-100 308 -100 568 0 299 63 727 107 727 2 0 14 -5 26 -12z m-2357 -482 c235
-49 591 -97 863 -117 126 -9 202 -9 335 0 268 19 654 72 880 121 49 11 91 19
92 17 2 -2 0 -80 -3 -173 l-6 -171 -111 -36 c-320 -104 -712 -169 -1021 -169
-310 -1 -706 65 -1025 168 l-105 34 3 48 c2 26 -1 102 -5 170 -5 68 -6 125 -4
128 3 2 12 2 20 -1 9 -2 48 -11 87 -19z m-26 -854 c199 -190 477 -321 800
-378 150 -27 499 -27 620 0 323 70 604 240 788 474 l42 54 10 -29 c25 -67 36
-91 67 -144 63 -109 182 -206 309 -250 32 -11 61 -23 63 -25 7 -7 -31 -44
-139 -133 -347 -288 -758 -468 -1205 -526 -241 -32 -557 -18 -799 36 -343 75
-682 235 -948 447 -87 70 -198 168 -198 176 0 1 19 9 43 16 181 54 347 215
398 388 l12 43 46 -53 c25 -29 66 -72 91 -96z"/>
<path d="M2655 4471 c-291 -85 -568 -395 -601 -672 -6 -50 -4 -58 21 -87 48
-58 54 -54 178 138 72 112 191 235 297 305 41 28 142 84 225 125 162 81 174
94 140 146 -42 64 -137 81 -260 45z"/>
<path d="M4825 4480 c-39 -16 -77 -66 -73 -96 3 -26 17 -36 150 -104 81 -41
182 -97 224 -125 104 -68 246 -217 318 -335 91 -148 111 -163 156 -115 20 22
22 31 18 97 -15 218 -226 496 -473 620 -112 57 -260 84 -320 58z"/>
</g>
</svg>
