<?xml version="1.0" standalone="no"?>
<!DOCTYPE svg PUBLIC "-//W3C//DTD SVG 20010904//EN"
 "http://www.w3.org/TR/2001/REC-SVG-20010904/DTD/svg10.dtd">
<svg version="1.0" xmlns="http://www.w3.org/2000/svg"
 width="157.000000pt" height="136.000000pt" viewBox="0 0 157.000000 136.000000"
 preserveAspectRatio="xMidYMid meet">

<g transform="translate(0.000000,136.000000) scale(0.100000,-0.100000)"
fill="#000000" stroke="none">
<path d="M404 1296 c-104 -48 -176 -143 -191 -253 -5 -35 -14 -53 -35 -71
l-28 -24 0 -272 c0 -304 0 -306 69 -327 32 -9 44 -9 70 4 18 9 33 11 37 6 3
-5 33 -33 67 -61 67 -56 67 -56 -56 -22 l-69 19 -29 -33 c-36 -40 -39 -96 -8
-135 23 -31 106 -58 249 -83 77 -13 145 -15 360 -11 245 4 273 6 368 30 56 15
113 34 126 42 47 31 60 104 26 148 -30 37 -49 40 -131 17 -95 -26 -101 -25
-59 7 19 15 49 42 67 60 30 32 32 32 62 17 41 -21 84 -10 116 28 l25 30 0 265
0 265 -32 31 c-21 21 -34 47 -40 76 -19 104 -95 202 -191 247 -52 24 -53 24
-387 24 -332 0 -335 0 -386 -24z m773 -10 c94 -44 162 -133 182 -239 l8 -47
-34 0 c-25 0 -43 -8 -64 -29 l-29 -29 0 -269 c0 -187 3 -272 11 -280 9 -9 6
-18 -9 -38 -27 -34 -88 -82 -132 -105 -76 -38 -354 -52 -526 -26 -97 14 -134
32 -214 103 -42 38 -44 42 -32 67 8 19 12 103 12 287 l0 261 -29 29 c-27 26
-52 35 -90 29 -11 -1 -12 8 -7 45 16 107 74 187 168 234 l61 31 336 0 c334 0
336 0 388 -24z m-862 -321 l25 -24 0 -261 c0 -168 -4 -269 -11 -282 -14 -26
-74 -51 -102 -42 -12 3 -32 16 -44 27 -23 20 -23 23 -23 293 l0 273 26 20 c38
30 98 28 129 -4z m1090 0 l25 -24 0 -265 c0 -263 0 -265 -23 -292 -31 -36 -96
-38 -132 -4 l-25 23 0 269 0 269 25 24 c18 19 35 25 65 25 30 0 47 -6 65 -25z
m-1005 -715 c241 -67 541 -66 795 1 125 34 121 34 149 6 34 -35 35 -85 1 -125
-28 -34 -125 -62 -279 -82 -108 -15 -557 -7 -631 10 -122 29 -185 51 -200 73
-22 31 -19 89 7 122 24 31 29 30 158 -5z"/>
</g>
</svg>
