<?xml version="1.0" standalone="no"?>
<!DOCTYPE svg PUBLIC "-//W3C//DTD SVG 20010904//EN"
 "http://www.w3.org/TR/2001/REC-SVG-20010904/DTD/svg10.dtd">
<svg version="1.0" xmlns="http://www.w3.org/2000/svg"
 width="287.000000pt" height="284.000000pt" viewBox="0 0 287.000000 284.000000"
 preserveAspectRatio="xMidYMid meet">

<g transform="translate(0.000000,284.000000) scale(0.100000,-0.100000)"
fill="#000000" stroke="none">
<path d="M1195 2834 c-11 -2 -45 -9 -75 -16 -97 -19 -209 -59 -320 -111 -48
-23 -202 -115 -210 -126 -3 -3 -23 -20 -45 -36 -52 -38 -192 -178 -230 -230
-16 -22 -33 -42 -36 -45 -4 -3 -29 -41 -56 -85 -70 -116 -107 -197 -146 -315
-23 -71 -32 -110 -57 -238 -23 -121 -8 -407 30 -544 5 -21 14 -53 19 -70 17
-65 38 -113 97 -231 38 -77 116 -202 134 -217 3 -3 16 -18 28 -34 41 -54 107
-121 172 -176 36 -30 67 -57 70 -60 15 -15 100 -70 108 -70 6 0 12 -4 14 -8
11 -29 302 -148 433 -177 59 -13 241 -35 295 -35 117 0 329 36 466 78 60 19
237 102 242 114 2 5 8 8 13 8 29 0 197 129 289 220 90 91 220 261 220 289 0 5
3 11 8 13 13 5 90 172 115 248 40 123 77 336 77 450 0 54 -24 261 -36 310 -33
137 -148 417 -176 428 -4 2 -8 8 -8 14 0 9 -51 86 -75 114 -5 7 -37 43 -70 81
-33 38 -84 89 -113 114 -29 24 -61 51 -70 59 -68 63 -275 176 -417 229 -122
45 -187 53 -430 57 -132 1 -249 1 -260 -2z"/>
</g>
</svg>
