<?xml version="1.0" standalone="no"?>
<!DOCTYPE svg PUBLIC "-//W3C//DTD SVG 20010904//EN"
 "http://www.w3.org/TR/2001/REC-SVG-20010904/DTD/svg10.dtd">
<svg version="1.0" xmlns="http://www.w3.org/2000/svg"
 width="360.000000pt" height="242.000000pt" viewBox="0 0 360.000000 242.000000"
 preserveAspectRatio="xMidYMid meet">

<g transform="translate(0.000000,242.000000) scale(0.100000,-0.100000)"
fill="#000000" stroke="none">
<path d="M108 2353 c-17 -4 -18 -67 -18 -1148 l0 -1143 333 -6 c182 -4 950 -6
1705 -4 1207 3 1374 5 1382 18 14 21 13 2245 0 2270 -10 19 -46 20 -1698 19
-928 -1 -1695 -4 -1704 -6z m3372 -1148 l0 -1115 -1677 2 -1678 3 -3 1100 c-1
605 0 1106 3 1113 3 9 349 12 1680 12 l1675 0 0 -1115z"/>
</g>
</svg>
