<?xml version="1.0" standalone="no"?>
<!DOCTYPE svg PUBLIC "-//W3C//DTD SVG 20010904//EN"
 "http://www.w3.org/TR/2001/REC-SVG-20010904/DTD/svg10.dtd">
<svg version="1.0" xmlns="http://www.w3.org/2000/svg"
 width="816.000000pt" height="1752.000000pt" viewBox="0 0 816.000000 1752.000000"
 preserveAspectRatio="xMidYMid meet">

<g transform="translate(0.000000,1752.000000) scale(0.100000,-0.100000)"
fill="#000000" stroke="none">
<path d="M1995 10233 c-16 -3 -40 -13 -53 -24 -14 -10 -30 -19 -37 -19 -21 0
-52 -44 -79 -111 l-26 -66 2 -1259 3 -1259 23 -29 c12 -16 22 -40 22 -55 1
-28 16 -53 40 -64 8 -4 33 -18 55 -32 22 -13 54 -24 72 -25 17 0 35 -4 38 -10
8 -13 3911 -14 3919 -1 4 5 29 12 56 16 37 5 64 17 100 46 56 44 73 72 89 147
14 67 16 2519 2 2554 -5 13 -12 35 -15 50 -8 34 -60 95 -89 104 -12 4 -27 14
-34 23 -10 15 -190 16 -2035 17 -1113 1 -2036 -1 -2053 -3z"/>
</g>
</svg>
